<svg xmlns="http://www.w3.org/2000/svg" version="1" width="1000" height="410" viewBox="0 0 800 328"><defs><filter id="a" x="-.032" width="1.063" y="-.019" height="1.039" color-interpolation-filters="sRGB"><feGaussianBlur stdDeviation="14.272"/></filter></defs><g fill="#adb0b3"><path d="M412.341 14.3c-1.044.284-3.133 1.043-4.746 1.708-1.52.664-3.703 1.424-4.747 1.709-1.044.284-6.17 2.088-11.392 3.987-9.303 3.417-14.335 5.126-31.327 10.917-4.652 1.614-9.399 3.323-10.443 3.797-1.044.475-4.842 1.804-8.544 2.943-3.607 1.14-7.025 2.468-7.594 2.943-.475.38-1.52.76-2.374.76-.76 0-2.658.664-4.082 1.424-1.424.759-4.082 1.613-5.98 1.993-1.804.285-3.513.95-3.798 1.424-.285.475-1.139.854-1.993.854-.76 0-2.753.57-4.367 1.235-3.703 1.613-8.734 3.417-12.816 4.556l-3.038.95.19 96.07.285 96.072 6.17.57c3.418.284 11.107 1.044 17.088 1.708 5.98.57 17.563 1.71 25.632 2.564 8.069.759 18.606 1.803 23.258 2.373 4.747.57 13.48 1.424 19.461 1.804 5.98.474 14.525 1.329 18.987 1.898 4.366.57 8.543.76 9.208.57 1.044-.38 1.234-23.164 1.044-122.652-.19-80.503-.57-122.273-1.234-122.368-.475-.19-1.804 0-2.848.19zm-6.455 123.22c.19 62.086-.095 108.793-.57 109.552-.76 1.14-1.993 1.14-8.164.19-4.082-.664-12.151-1.614-17.942-1.993-13.48-1.045-30.094-2.658-40.726-3.892-4.557-.57-13.196-1.33-19.176-1.804-6.266-.38-11.487-1.234-12.341-1.899-1.235-1.044-1.424-11.866-1.424-87.812 0-81.736.095-86.673 1.708-87.148.855-.284 3.988-1.424 6.836-2.563 2.847-1.139 6.93-2.563 9.018-3.322 2.089-.665 9.398-3.228 16.138-5.696 6.836-2.374 13.67-4.747 15.19-5.221 1.613-.38 5.22-1.71 8.069-2.848 2.848-1.14 6.74-2.469 8.544-3.038 1.803-.475 3.702-1.33 4.272-1.804.474-.475 1.708-.854 2.658-.854s3.133-.57 4.746-1.234c3.987-1.71 8.829-3.418 13.006-4.652 1.804-.475 3.702-1.33 4.272-1.804.475-.57 1.994-.854 3.323-.664l2.373.284.19 108.223z"/><path d="M385 134.578c-3.037 2.848-3.227 6.076-.664 8.924 3.038 3.227 7.215 2.753 9.493-1.045 2.374-3.797 2.374-3.892-.19-6.74-3.227-3.512-5.695-3.797-8.638-1.139z"/><path d="M427.53 24.267c-.285.665-.38 52.497-.285 115.153l.285 113.918 4.652.285c2.563.19 9.113-.38 14.714-1.14 5.506-.854 12.152-1.518 14.81-1.518 2.563 0 9.968-.665 16.518-1.424 17.278-1.994 39.207-4.177 48.51-4.842 4.462-.285 8.639-1.044 9.304-1.519.854-.76 1.139-20.22 1.139-91.514v-90.47l-3.133-1.52c-1.709-.759-4.367-1.803-5.886-2.373-1.614-.474-7.12-2.373-12.341-4.272-5.221-1.898-10.348-3.702-11.392-3.987-1.044-.285-3.227-1.044-4.936-1.803-1.614-.76-3.418-1.33-3.987-1.33-.57 0-1.804-.38-2.753-.949-.855-.474-4.842-1.898-8.734-3.228-3.892-1.329-11.392-3.892-16.613-5.79-16.803-6.076-25.632-9.114-27.53-9.683-1.045-.285-3.228-1.045-4.937-1.804-3.702-1.614-6.835-1.709-7.405-.19zm21.455 109.741c2.468 2.089 2.848 6.74.854 9.304-3.322 3.892-9.208 3.607-11.771-.57-4.082-6.93 4.556-13.86 10.917-8.734z" fill="#d66a2b"/><path d="M2930 2084c-8-3-24-9-35-14s-42-15-70-24c-27-8-90-28-140-44-49-16-137-43-195-61-58-19-143-46-190-60-47-15-132-42-190-60s-125-40-150-50l-45-17-3-694c-1-382 0-705 3-717l5-23h528c290 0 533 4 540 8 10 7 12 190 10 883l-3 874-25 2c-14 1-32 0-40-3zm-46-153c10-15 7-1474-2-1483-5-5-195-9-428-9h-419v1232l25 14c14 7 79 30 145 50s129 40 140 44c11 5 67 23 125 41 218 68 296 93 330 105 42 16 77 18 84 6z" filter="url(#a)" transform="matrix(.09493 0 0 -.09493 1.76 278.495)"/><path d="M547.334 89.2c-.38.38-.664 34.746-.664 76.42 0 71.2.095 75.851 1.709 76.61 2.373 1.235 87.717 1.235 89.236 0 .854-.759 1.139-14.429 1.139-62.56 0-54.585-.19-61.61-1.519-62.94-.76-.854-2.088-1.518-2.753-1.518-.76 0-5.98-1.519-11.582-3.323-11.012-3.607-21.55-6.93-37.308-11.866-5.506-1.709-10.822-3.418-11.866-3.892-1.045-.38-5.127-1.614-9.019-2.753-3.892-1.14-7.784-2.469-8.639-2.848-2.468-1.235-7.974-2.089-8.734-1.33z" fill="#d66a2b"/><path d="M163.145 129.167a991.187 991.187 0 0 1-12.342 3.797c-2.848.76-6.93 1.994-9.018 2.658-2.089.665-6.36 1.994-9.493 2.848-3.133.855-7.405 2.184-9.493 2.848a601.582 601.582 0 0 1-10.918 3.323c-3.892 1.139-8.164 2.373-9.493 2.848-1.329.38-4.177 1.234-6.36 1.803-2.279.665-4.462 1.9-4.937 2.848-.57 1.045-.95 19.746-.95 48.32v46.612l3.039.57c1.709.285 20.6.38 41.96.285l38.922-.285.285-60.567.19-60.471-2.089.095c-1.234.095-5.411 1.139-9.303 2.468zm.949 14.335c.57 2.753.38 92.179-.19 92.843-.76.665-61.326.57-62.465-.095-.57-.38-.95-14.24-.95-37.878 0-34.365.095-37.403 1.71-38.827 1.613-1.519 10.347-4.652 16.328-5.886 1.803-.38 3.892-1.044 4.746-1.424.76-.38 3.987-1.424 7.12-2.278 3.133-.854 7.69-2.278 10.063-3.038 2.468-.664 4.936-1.329 5.6-1.329.665 0 2.47-.57 4.083-1.329 3.797-1.614 10.158-3.228 12.056-3.038.76 0 1.614 1.044 1.899 2.279z"/><path d="M647.962 134.863c-.38.285-.664 24.397-.664 53.447 0 41.2.285 53.161 1.234 53.92.76.57 13.385.95 35.505 1.045 29.713 0 34.555-.19 35.884-1.424 1.234-1.234 1.424-6.835 1.424-41.675 0-22.784-.38-41.2-.855-42.53-.664-1.613-1.898-2.563-4.082-3.037-1.708-.38-4.841-1.14-6.93-1.899-2.088-.665-6.36-1.994-9.493-2.848-3.133-.95-6.74-1.994-8.07-2.468-1.328-.38-5.6-1.614-9.492-2.753-3.893-1.044-9.019-2.563-11.392-3.228-2.373-.76-6.835-1.993-9.968-2.943s-7.12-2.278-8.829-2.943c-3.607-1.519-3.512-1.519-4.272-.664z" fill="#d66a2b"/><path d="M75.807 163.722c-1.329.57-4.272 1.614-6.645 2.278-2.373.665-6.36 1.9-9.019 2.659-2.563.76-7.025 2.088-9.778 2.848-13.005 3.892-15.189 4.556-19.65 5.98-2.564.76-6.456 1.804-8.544 2.374-1.994.474-4.272 1.424-4.937 1.993-.95.76-1.234 8.07-1.234 33.036 0 28.385.19 32.182 1.519 32.657 2.278.854 62.37.665 63.794-.19.95-.664 1.14-9.778.95-42.53-.285-40.915-.285-41.674-2.184-41.864-1.044-.095-2.943.284-4.272.76zm-3.987 42.53c.095 15.948-.19 29.334-.57 29.713-.949.95-42.244 1.235-43.763.285-1.424-.76-1.424-43.574-.095-46.137.57-1.044 1.993-1.803 3.322-1.803 1.235 0 3.703-.57 5.412-1.33 1.708-.664 5.696-1.993 8.828-2.942 10.253-2.943 15.094-4.462 18.512-5.696 1.804-.76 4.367-1.234 5.696-1.14l2.373.19.285 28.86z"/><path d="M730.553 171.791c-.38.38-.664 16.234-.664 35.125 0 26.486.285 34.65 1.234 35.22 1.139.76 49.554 1.234 51.738.475.854-.285 1.139-6.835 1.139-28.29v-27.91l-2.563-.57c-1.52-.285-3.703-.854-5.032-1.329-1.329-.474-5.6-1.709-9.493-2.848a601.582 601.582 0 0 1-10.917-3.322c-2.088-.665-6.55-1.994-9.968-2.848-3.417-.855-6.835-1.899-7.594-2.374-2.469-1.234-7.215-1.993-7.88-1.329z" fill="#d66a2b"/></g><g style="line-height:125%" font-weight="400" font-size="40" font-family="sans-serif" letter-spacing="0" word-spacing="0"><path d="M40.044 305.701q0 .239-.167.429-.143.19-.5.31-.357.118-.952.19-.595.071-1.5.071-.928 0-1.547-.071-.595-.072-.952-.19-.334-.12-.5-.31-.143-.19-.143-.429v-12.45H22.261v12.45q0 .239-.143.429t-.5.31q-.357.118-.952.19-.595.071-1.524.071-.904 0-1.523-.071-.595-.072-.952-.19-.358-.12-.524-.31-.143-.19-.143-.429v-29.09q0-.238.143-.429.166-.19.524-.31.357-.118.952-.19.619-.071 1.523-.071.929 0 1.524.071.595.072.952.19.357.12.5.31.143.19.143.429v11.308h11.522V276.61q0-.238.143-.429.166-.19.5-.31.357-.118.952-.19.619-.071 1.547-.071.905 0 1.5.071.595.072.952.19.357.12.5.31.167.19.167.429v29.09zm24.448.119q0 .334-.238.524t-.761.262q-.5.095-1.5.095-1.071 0-1.571-.095-.476-.071-.69-.262-.191-.19-.191-.524v-1.69q-1.31 1.405-3 2.19-1.666.786-3.713.786-1.69 0-3.119-.452-1.404-.429-2.452-1.286-1.024-.88-1.595-2.166t-.571-3q0-1.857.714-3.213.738-1.381 2.166-2.262 1.452-.905 3.595-1.333 2.142-.429 4.975-.429h2.071v-1.285q0-1-.214-1.738-.19-.762-.666-1.262-.453-.5-1.238-.738-.762-.238-1.905-.238-1.5 0-2.69.334-1.166.333-2.07.738-.906.404-1.524.738-.596.333-.977.333-.261 0-.476-.167-.19-.166-.333-.476-.119-.31-.19-.762-.072-.452-.072-1 0-.738.12-1.166.118-.429.452-.762.333-.357 1.166-.762.833-.428 1.952-.785 1.119-.357 2.428-.572 1.333-.238 2.738-.238 2.5 0 4.261.5 1.786.476 2.928 1.5 1.143 1 1.667 2.595.523 1.595.523 3.785v14.283zm-5.88-9.093h-2.285q-1.452 0-2.476.214-1.023.214-1.666.643-.643.428-.952 1.047-.286.595-.286 1.38 0 1.334.833 2.096.857.762 2.357.762 1.262 0 2.31-.643 1.07-.643 2.165-1.88v-3.62zm43.018 7.903q0 .952-.405 1.452-.405.476-1.262.476H72.158q-.857 0-1.262-.476-.404-.5-.404-1.452v-20.116q0-.238.142-.404.143-.19.5-.31.357-.119.929-.167.595-.071 1.476-.071.88 0 1.428.071.571.048.88.167.334.12.453.31.143.166.143.404v17.045h6.737v-17.045q0-.238.12-.404.118-.19.404-.31.31-.119.857-.167.571-.071 1.428-.071t1.428.071q.596.048.905.167.333.12.476.31.143.166.143.404v17.045h6.737v-17.045q0-.238.12-.404.142-.19.475-.31.334-.119.881-.167.571-.071 1.428-.071.881 0 1.453.071.595.048.928.167.357.12.5.31.167.166.167.404v20.116zm27.233 1.19q0 .239-.142.405-.12.167-.453.286-.333.095-.904.143-.548.047-1.405.047t-1.452-.047q-.571-.048-.952-.143-.357-.12-.524-.286-.143-.166-.143-.405v-9.474q0-1 .048-2.071.071-1.072.19-2.095-.571 1-1.238 1.976-.666.952-1.357 1.904l-7.165 9.737q-.214.262-.405.452-.19.167-.5.286-.285.095-.738.119-.452.047-1.166.047-.857 0-1.405-.047-.524-.048-.857-.143-.31-.12-.452-.286-.12-.19-.12-.428V284.49q0-.214.12-.38.143-.19.476-.31.357-.119.905-.167.571-.071 1.428-.071 1.69 0 2.38.238t.69.69v9.428q0 .976-.07 2.023-.072 1.048-.191 2.024.571-.953 1.167-1.881.595-.952 1.261-1.833l7.237-9.76q.19-.262.405-.429.214-.19.524-.286.333-.119.785-.166.476-.048 1.214-.048.834 0 1.381.048.548.047.857.166.333.12.452.31.12.19.12.428v21.306zm19.831 7.69q0 .214-.12.357-.118.167-.428.262-.31.119-.81.166-.475.072-1.213.072-.762 0-1.262-.072-.5-.047-.81-.166-.309-.095-.428-.262-.119-.143-.119-.357v-10.641q0-.715.238-.953.238-.262.929-.262h1.166q.762-1 1.428-2.261.667-1.262 1.238-3.119.595-1.88 1.072-4.475.5-2.619.928-6.261.048-.429.143-.762.119-.357.31-.595.19-.238.475-.357.31-.12.738-.12h13.117q.857 0 1.262.5.405.477.405 1.43v16.02h2.428q.643 0 .905.262.285.238.285.953v10.64q0 .215-.119.358-.119.167-.428.262-.31.119-.81.166-.5.072-1.261.072-.738 0-1.238-.072-.5-.047-.81-.166-.285-.095-.428-.262-.12-.143-.12-.357v-6.952h-16.663v6.952zm12.236-25.02h-5.07q-.405 3-.882 5.166-.476 2.142-1 3.69-.523 1.547-1.118 2.547-.572 1-1.143 1.761h9.213V288.49zm32.876 11.022q0 1.833-.69 3.214-.667 1.38-2.048 2.309-1.38.905-3.452 1.38-2.07.477-4.88.477-.928 0-1.738-.024-.785 0-1.547-.024-.738-.024-1.5-.071-.738-.048-1.595-.143-1.119-.095-1.595-.667-.476-.571-.476-1.714v-18.306q0-1.096.452-1.643.453-.571 1.381-.69.595-.048 1.357-.096.786-.047 1.69-.071.905-.048 1.88-.072.977-.023 1.977-.023 2.547 0 4.38.357 1.857.357 3.047 1.095 1.214.714 1.786 1.785.595 1.048.595 2.476 0 1.928-1.048 3.214-1.023 1.285-2.952 1.738 2.405.428 3.69 1.857 1.286 1.404 1.286 3.642zm-6.57-9.38q0-.642-.239-1.142-.214-.5-.714-.833-.5-.358-1.333-.524-.81-.19-1.976-.19-.905 0-1.714.047-.785.048-1.38.119v5.356h3.213q2.024 0 3.071-.714 1.071-.738 1.071-2.119zm.618 9.356q0-.762-.262-1.333-.238-.571-.833-.952-.571-.381-1.523-.548-.929-.19-2.238-.19h-3.119v6.094q.381.048.786.095l.857.048.833.048h.762q1.262 0 2.166-.215.905-.238 1.476-.666.572-.429.833-1.024.262-.619.262-1.357zm30.138-4.975q0 1.095-.5 1.619-.476.523-1.333.523h-12.926q0 1.357.31 2.476.333 1.095 1.023 1.88.714.763 1.81 1.167 1.118.405 2.666.405 1.57 0 2.761-.214 1.19-.238 2.047-.5.881-.286 1.452-.5.572-.238.929-.238.214 0 .357.095.143.071.238.286.095.214.119.619.048.38.048.976 0 .523-.024.904-.024.357-.072.62-.047.261-.142.452-.096.166-.262.333-.143.166-.834.452-.69.286-1.761.571-1.071.262-2.452.453-1.38.214-2.952.214-2.833 0-4.976-.714-2.118-.714-3.547-2.166-1.428-1.453-2.142-3.667-.69-2.214-.69-5.19 0-2.832.738-5.094.737-2.285 2.142-3.856 1.405-1.595 3.404-2.428 2.024-.834 4.547-.834 2.666 0 4.547.786 1.905.786 3.119 2.19 1.214 1.38 1.785 3.285.571 1.905.571 4.143v.952zm-5.808-1.714q.071-2.524-1.024-3.952-1.071-1.452-3.333-1.452-1.142 0-2 .428-.832.429-1.404 1.167-.547.714-.857 1.714-.286.976-.333 2.095h8.95zm32.138 2.023q0 2.833-.62 5.118-.594 2.262-1.76 3.857-1.167 1.595-2.905 2.452-1.738.857-3.976.857-.928 0-1.714-.19-.762-.167-1.5-.524-.714-.381-1.428-.929-.714-.547-1.476-1.285v9.998q0 .238-.143.429-.142.19-.5.31-.333.142-.904.214-.572.071-1.452.071-.881 0-1.453-.071-.57-.072-.928-.215-.333-.119-.476-.31-.143-.19-.143-.428v-29.662q0-.238.12-.404.118-.19.404-.31.31-.119.785-.167.5-.071 1.238-.071.715 0 1.19.071.5.048.786.167.31.12.429.31.119.166.119.404v2.5q.928-.952 1.809-1.667.905-.737 1.833-1.214.928-.5 1.905-.738 1-.238 2.118-.238 2.333 0 3.976.929 1.642.904 2.666 2.5 1.048 1.594 1.524 3.713.476 2.119.476 4.523zm-6.237.429q0-1.357-.215-2.595-.19-1.262-.69-2.238-.476-.976-1.286-1.547-.785-.595-1.975-.595-.596 0-1.19.19-.572.167-1.191.571-.595.405-1.238 1.048t-1.357 1.595v6.999q1.262 1.595 2.405 2.476 1.142.857 2.38.857 1.167 0 1.976-.596.833-.595 1.357-1.547.524-.976.762-2.19.262-1.214.262-2.428zm32.185 10.569q0 .239-.143.405-.119.167-.452.286-.333.095-.905.143-.547.047-1.404.047-.857 0-1.452-.047-.572-.048-.953-.143-.357-.12-.523-.286-.143-.166-.143-.405v-9.474q0-1 .047-2.071.072-1.072.19-2.095-.57 1-1.237 1.976-.667.952-1.357 1.904l-7.165 9.737q-.215.262-.405.452-.19.167-.5.286-.286.095-.738.119-.452.047-1.167.047-.857 0-1.404-.047-.524-.048-.857-.143-.31-.12-.452-.286-.12-.19-.12-.428V284.49q0-.214.12-.38.142-.19.476-.31.357-.119.904-.167.572-.071 1.429-.071 1.69 0 2.38.238t.69.69v9.428q0 .976-.07 2.023-.072 1.048-.191 2.024.571-.953 1.166-1.881.595-.952 1.262-1.833l7.237-9.76q.19-.262.405-.429.214-.19.523-.286.334-.119.786-.166.476-.048 1.214-.048.833 0 1.38.048.548.047.858.166.333.12.452.31.12.19.12.428v21.306zm27.567-11.236q0 1.38-.262 1.928-.261.548-.833.548h-9.903q-.595 0-.857-.548-.262-.57-.262-1.928 0-1.333.262-1.88.262-.548.857-.548h9.903q.286 0 .476.119.215.119.357.405.143.285.19.761.072.477.072 1.143z" fill="#adb0b3"/><path d="M335.974 297.322q0 1.642-.452 2.976-.452 1.333-1.262 2.356-.785 1.024-1.904 1.762-1.095.738-2.428 1.214-1.334.476-2.857.714-1.5.214-3.357.214h-8.189q-.786 0-1.333-.452-.524-.476-.524-1.523V277.73q0-1.048.524-1.5.547-.476 1.333-.476h7.737q2.833 0 4.785.476 1.976.476 3.309 1.452 1.357.952 2.071 2.428.714 1.476.714 3.476 0 1.119-.286 2.119-.285.976-.833 1.785-.547.81-1.357 1.428-.785.62-1.809 1 1.31.238 2.405.833 1.118.596 1.928 1.548.833.928 1.31 2.19.475 1.262.475 2.833zm-8.094-12.974q0-.929-.285-1.667-.286-.738-.857-1.214-.572-.5-1.453-.762-.857-.262-2.309-.262h-3.166v8h3.5q1.356 0 2.166-.31.81-.334 1.333-.881.548-.571.81-1.31.261-.761.261-1.594zm1.595 13.188q0-1.071-.357-1.904-.357-.857-1.047-1.429-.69-.571-1.762-.88-1.071-.31-2.785-.31h-3.714v8.76h4.523q1.31 0 2.19-.261.905-.286 1.548-.81.666-.547 1.023-1.333.381-.81.381-1.833zm29.258 8.284q0 .334-.238.524-.239.19-.762.262-.5.095-1.5.095-1.071 0-1.571-.095-.476-.071-.69-.262-.191-.19-.191-.524v-1.69q-1.31 1.405-3 2.19-1.666.786-3.713.786-1.69 0-3.119-.452-1.404-.429-2.452-1.286-1.023-.88-1.595-2.166-.571-1.286-.571-3 0-1.857.714-3.213.738-1.381 2.166-2.262 1.452-.905 3.595-1.333 2.143-.429 4.975-.429h2.072v-1.285q0-1-.215-1.738-.19-.762-.666-1.262-.453-.5-1.238-.738-.762-.238-1.905-.238-1.5 0-2.69.334-1.166.333-2.07.738-.905.404-1.524.738-.596.333-.976.333-.262 0-.477-.167-.19-.166-.333-.476-.119-.31-.19-.762-.072-.452-.072-1 0-.738.12-1.166.118-.429.452-.762.333-.357 1.166-.762.833-.428 1.952-.785 1.12-.357 2.428-.572 1.334-.238 2.738-.238 2.5 0 4.261.5 1.786.476 2.928 1.5 1.143 1 1.667 2.595.524 1.595.524 3.785v14.283zm-5.88-9.093h-2.286q-1.452 0-2.476.214-1.023.214-1.666.643-.643.428-.952 1.047-.286.595-.286 1.38 0 1.334.833 2.096.857.762 2.357.762 1.262 0 2.31-.643 1.07-.643 2.166-1.88v-3.62zm43.017 7.903q0 .952-.405 1.452-.405.476-1.262.476h-27.805q-.857 0-1.262-.476-.404-.5-.404-1.452v-20.116q0-.238.142-.404.143-.19.5-.31.358-.119.929-.167.595-.071 1.476-.071.88 0 1.428.071.571.048.881.167.333.12.452.31.143.166.143.404v17.045h6.737v-17.045q0-.238.12-.404.118-.19.404-.31.31-.119.857-.167.571-.071 1.428-.071t1.429.071q.595.048.904.167.334.12.476.31.143.166.143.404v17.045h6.737v-17.045q0-.238.12-.404.142-.19.475-.31.334-.119.881-.167.572-.071 1.429-.071.88 0 1.452.071.595.048.928.167.357.12.5.31.167.166.167.404v20.116zm24.186 1.19q0 .334-.238.524t-.761.262q-.5.095-1.5.095-1.071 0-1.571-.095-.476-.071-.69-.262-.191-.19-.191-.524v-1.69q-1.31 1.405-3 2.19-1.666.786-3.713.786-1.69 0-3.119-.452-1.405-.429-2.452-1.286-1.024-.88-1.595-2.166t-.571-3q0-1.857.714-3.213.738-1.381 2.166-2.262 1.452-.905 3.595-1.333 2.142-.429 4.975-.429h2.071v-1.285q0-1-.214-1.738-.19-.762-.666-1.262-.453-.5-1.238-.738-.762-.238-1.905-.238-1.5 0-2.69.334-1.166.333-2.071.738-.905.404-1.524.738-.595.333-.976.333-.261 0-.476-.167-.19-.166-.333-.476-.119-.31-.19-.762-.072-.452-.072-1 0-.738.12-1.166.118-.429.451-.762.334-.357 1.167-.762.833-.428 1.952-.785 1.119-.357 2.428-.572 1.333-.238 2.738-.238 2.5 0 4.261.5 1.786.476 2.928 1.5 1.143 1 1.667 2.595.523 1.595.523 3.785v14.283zm-5.88-9.093h-2.285q-1.452 0-2.476.214-1.023.214-1.666.643-.643.428-.952 1.047-.286.595-.286 1.38 0 1.334.833 2.096.857.762 2.357.762 1.262 0 2.309-.643 1.071-.643 2.166-1.88v-3.62zm38.994 5.642q0 .619-.047 1.047-.024.405-.095.69-.048.286-.143.477-.072.166-.357.452-.286.262-.976.666-.69.381-1.572.69-.88.31-1.928.5-1.024.191-2.119.191-2.452 0-4.356-.762-1.88-.761-3.166-2.237-1.286-1.5-1.952-3.643-.643-2.142-.643-4.904 0-3.19.785-5.499.81-2.333 2.238-3.856 1.429-1.524 3.38-2.262 1.953-.738 4.286-.738.952 0 1.857.167.928.166 1.714.452.809.286 1.428.643.643.357.905.619.261.262.357.452.119.167.166.452.072.286.096.715.047.404.047 1 0 1.38-.238 1.952-.238.547-.619.547-.405 0-.857-.333-.452-.333-1.071-.738-.62-.405-1.476-.738-.857-.333-2.047-.333-2.333 0-3.571 1.809-1.238 1.785-1.238 5.26 0 1.715.31 3.024.309 1.31.904 2.19.619.881 1.523 1.333.929.429 2.143.429 1.238 0 2.119-.357.904-.381 1.57-.833.667-.453 1.12-.81.452-.38.762-.38.214 0 .357.118.142.12.214.453.095.31.143.81.047.5.047 1.285zm20.069-16.022q0 .786-.072 1.31-.047.523-.166.833-.12.31-.31.428-.167.12-.38.12h-5.357v16.711q0 .238-.143.429-.143.166-.476.285-.333.12-.928.167-.572.071-1.453.071-.857 0-1.428-.071-.571-.048-.928-.167-.334-.119-.477-.285-.119-.19-.119-.429v-16.712h-5.356q-.238 0-.428-.119-.167-.142-.286-.452-.12-.31-.19-.857-.048-.547-.048-1.333 0-.714.071-1.19.072-.5.19-.81.12-.31.286-.428.167-.143.405-.143h16.664q.214 0 .381.143.19.119.31.428.119.31.166.833.072.5.072 1.238zm21.377 19.473q0 .334-.238.524t-.762.262q-.5.095-1.5.095-1.07 0-1.57-.095-.477-.071-.69-.262-.191-.19-.191-.524v-1.69q-1.31 1.405-3 2.19-1.666.786-3.714.786-1.69 0-3.118-.452-1.405-.429-2.452-1.286-1.024-.88-1.595-2.166t-.571-3q0-1.857.714-3.213.738-1.381 2.166-2.262 1.452-.905 3.595-1.333 2.142-.429 4.975-.429h2.071v-1.285q0-1-.214-1.738-.19-.762-.667-1.262-.452-.5-1.237-.738-.762-.238-1.905-.238-1.5 0-2.69.334-1.166.333-2.071.738-.905.404-1.524.738-.595.333-.976.333-.262 0-.476-.167-.19-.166-.333-.476-.12-.31-.19-.762-.072-.452-.072-1 0-.738.119-1.166.12-.429.452-.762.334-.357 1.167-.762.833-.428 1.952-.785 1.119-.357 2.428-.572 1.333-.238 2.738-.238 2.5 0 4.261.5 1.785.476 2.928 1.5 1.143 1 1.667 2.595.523 1.595.523 3.785v14.283zm-5.88-9.093h-2.285q-1.452 0-2.476.214t-1.666.643q-.643.428-.953 1.047-.285.595-.285 1.38 0 1.334.833 2.096.857.762 2.357.762 1.261 0 2.309-.643 1.071-.643 2.166-1.88v-3.62zm31.519 9.023q0 .237-.143.428-.143.166-.476.285-.333.12-.928.167-.572.071-1.429.071-.88 0-1.476-.071-.57-.048-.928-.167-.333-.119-.476-.285-.12-.19-.12-.429v-17.164h-4.308q-.38 3.738-.952 6.57-.548 2.81-1.286 4.857t-1.642 3.404q-.881 1.333-1.952 2.119-1.072.785-2.333 1.119-1.238.333-2.619.333-.333 0-.548-.095-.214-.095-.333-.357-.119-.286-.166-.81-.048-.523-.048-1.38 0-.881.024-1.429.047-.547.143-.833.095-.31.261-.405.167-.095.405-.095.667 0 1.262-.262.619-.285 1.143-.976.547-.714 1.023-1.857.476-1.166.881-2.928.405-1.761.762-4.19.357-2.452.69-5.69.048-.975.405-1.451.38-.477 1.214-.477h12.308q.833 0 1.238.477.404.476.404 1.452v20.068zm26.139-7.143q0 1.881-.714 3.452-.69 1.548-2.143 2.666-1.452 1.095-3.666 1.714-2.19.596-5.19.596-.785 0-1.618-.024-.833 0-1.643-.048-.81-.024-1.595-.071-.762-.048-1.428-.12-1.143-.118-1.667-.69-.5-.571-.5-1.737v-19.83q0-.239.143-.405.143-.19.476-.31.357-.119.929-.167.571-.071 1.428-.071.881 0 1.452.071.572.048.905.167.357.12.5.31.167.166.167.404v6.547q.809-.072 1.761-.12.952-.047 1.952-.047 2.69 0 4.666.548 1.976.523 3.238 1.523 1.285 1 1.904 2.429.643 1.404.643 3.213zm-6.309.334q0-.834-.261-1.476-.262-.667-.857-1.12-.572-.475-1.5-.713-.905-.238-2.238-.238-.833 0-1.619.047-.785.024-1.38.072v6.856q.69.071 1.452.119.785.047 1.666.047 2.428 0 3.57-.952 1.167-.952 1.167-2.642zm30.805 6.809q0 .237-.143.428-.142.166-.476.285-.333.12-.928.167-.572.071-1.429.071-.88 0-1.476-.071-.57-.048-.904-.167-.333-.119-.476-.285-.143-.19-.143-.429v-8.356h-8.594v8.356q0 .238-.143.429-.143.166-.5.285-.333.12-.904.167-.572.071-1.453.071-.88 0-1.452-.071-.571-.048-.928-.167-.333-.119-.476-.285-.143-.19-.143-.429v-21.235q0-.238.143-.404.143-.19.476-.31.357-.119.928-.167.572-.071 1.452-.071.881 0 1.453.071.571.048.904.167.357.12.5.31.143.166.143.404v7.951h8.594v-7.95q0-.239.143-.405.143-.19.476-.31.333-.119.904-.167.596-.071 1.476-.071.857 0 1.429.071.595.048.928.167.334.12.476.31.143.166.143.404v21.235zm24.092.07q0 .334-.238.524t-.762.262q-.5.095-1.5.095-1.071 0-1.571-.095-.476-.071-.69-.262-.19-.19-.19-.524v-1.69q-1.31 1.405-3 2.19-1.667.786-3.714.786-1.69 0-3.119-.452-1.404-.429-2.452-1.286-1.023-.88-1.595-2.166-.571-1.286-.571-3 0-1.857.714-3.213.738-1.381 2.166-2.262 1.453-.905 3.595-1.333 2.143-.429 4.976-.429h2.07v-1.285q0-1-.214-1.738-.19-.762-.666-1.262-.452-.5-1.238-.738-.762-.238-1.905-.238-1.5 0-2.69.334-1.166.333-2.07.738-.905.404-1.524.738-.595.333-.976.333-.262 0-.476-.167-.19-.166-.334-.476-.119-.31-.19-.762-.072-.452-.072-1 0-.738.12-1.166.118-.429.452-.762.333-.357 1.166-.762.833-.428 1.952-.785 1.12-.357 2.429-.572 1.333-.238 2.737-.238 2.5 0 4.261.5 1.786.476 2.929 1.5 1.142 1 1.666 2.595.524 1.595.524 3.785v14.283zm-5.88-9.093h-2.286q-1.452 0-2.476.214-1.023.214-1.666.643-.643.428-.952 1.047-.286.595-.286 1.38 0 1.334.833 2.096.857.762 2.357.762 1.262 0 2.31-.643 1.07-.643 2.166-1.88v-3.62zm30.138 9.023q0 .26-.12.451-.094.167-.428.286-.31.12-.904.167-.572.047-1.524.047-.857 0-1.428-.047-.572-.048-.929-.167-.333-.119-.476-.286-.119-.19-.119-.452v-8.022h-1.571q-1.095 0-1.738.214-.643.19-1.19.69-.524.476-.976 1.286-.452.785-.905 2l-1.404 3.642q-.143.357-.357.595-.19.214-.596.333-.38.12-1 .167-.618.047-1.57.047-.834 0-1.405-.024-.571-.023-.929-.095-.357-.071-.523-.214-.143-.143-.143-.405t.167-.738q.19-.5.69-1.595l1.452-3.356q.643-1.476 1.571-2.476.929-1.024 2.119-1.5-2.238-.524-3.547-1.928-1.286-1.428-1.286-3.714 0-1.69.667-3.023.69-1.357 2.023-2.286 1.357-.928 3.357-1.428 2-.5 4.642-.5.738 0 1.619.024.905.024 1.81.071.928.048 1.808.12.905.047 1.595.118.786.048 1.167.548.38.476.38 1.262v20.187zm-5.928-18.022q-.666-.119-1.38-.167-.715-.047-1.334-.047-1.261 0-2.118.238-.834.238-1.357.666-.524.429-.762 1.024-.214.595-.214 1.286 0 .738.238 1.333.262.571.785.976.548.38 1.357.595.833.19 2.214.19h2.571v-6.094zm39.232 12.141q0 1.762-.738 3.119-.738 1.333-2.07 2.261-1.334.929-3.238 1.38-1.881.477-4.238.477-1.214 0-2.333-.19-1.119-.167-2.071-.429-.928-.286-1.547-.571-.62-.31-.905-.524-.262-.238-.405-.452-.119-.238-.19-.524-.072-.286-.095-.69-.024-.429-.024-1.024 0-.548.047-.88.048-.334.12-.548.095-.215.214-.286.119-.095.285-.095.31 0 .786.31.5.285 1.238.642.762.333 1.833.643 1.095.31 2.619.31 1.047 0 1.833-.215.809-.214 1.333-.595.547-.405.81-.976.285-.572.285-1.286 0-.666-.262-1.19-.262-.524-.88-.88-.596-.382-1.596-.572-.976-.19-2.404-.19h-2.286q-.31 0-.5-.096-.19-.119-.309-.357-.12-.238-.167-.643-.024-.404-.024-.976 0-.547.048-.904.048-.381.143-.596.119-.214.286-.309.19-.095.452-.095h2.214q1.285 0 2.214-.19.928-.191 1.523-.548.595-.381.857-.905.286-.547.286-1.262 0-.619-.262-1.095-.262-.5-.738-.809-.476-.333-1.166-.476-.667-.167-1.476-.167-1.357 0-2.428.31-1.048.285-1.834.642-.785.358-1.309.643-.5.286-.762.286-.142 0-.261-.048-.12-.071-.239-.262-.095-.214-.166-.57-.048-.358-.048-.953 0-.929.12-1.476.142-.571.428-.857.31-.31 1.047-.667.762-.38 1.762-.666 1.024-.31 2.214-.5 1.214-.19 2.476-.19 1.952 0 3.57.38 1.62.381 2.738 1.167 1.143.762 1.738 1.904.619 1.143.619 2.643 0 .904-.286 1.737-.285.834-.81 1.524-.523.667-1.285 1.19-.738.524-1.714.81l-.024.047q1.024.12 1.905.572.905.452 1.571 1.142.69.69 1.071 1.62.405.904.405 1.975zm22.711 5.951q0 .334-.238.524t-.762.262q-.5.095-1.5.095-1.07 0-1.57-.095-.477-.071-.691-.262-.19-.19-.19-.524v-1.69q-1.31 1.405-3 2.19-1.667.786-3.714.786-1.69 0-3.118-.452-1.405-.429-2.452-1.286-1.024-.88-1.595-2.166-.572-1.286-.572-3 0-1.857.714-3.213.738-1.381 2.167-2.262 1.452-.905 3.594-1.333 2.143-.429 4.976-.429h2.07v-1.285q0-1-.213-1.738-.19-.762-.667-1.262-.452-.5-1.238-.738-.762-.238-1.904-.238-1.5 0-2.69.334-1.167.333-2.071.738-.905.404-1.524.738-.595.333-.976.333-.262 0-.476-.167-.19-.166-.333-.476-.12-.31-.19-.762-.072-.452-.072-1 0-.738.119-1.166.119-.429.452-.762.333-.357 1.166-.762.834-.428 1.953-.785 1.118-.357 2.428-.572 1.333-.238 2.737-.238 2.5 0 4.262.5 1.785.476 2.928 1.5 1.142 1 1.666 2.595.524 1.595.524 3.785v14.283zm-5.88-9.093h-2.285q-1.453 0-2.476.214-1.024.214-1.667.643-.642.428-.952 1.047-.286.595-.286 1.38 0 1.334.834 2.096.857.762 2.356.762 1.262 0 2.31-.643 1.07-.643 2.166-1.88v-3.62zm46.635 16.926q0 .166-.142.285-.12.143-.429.238-.285.096-.762.143-.476.048-1.19.048-.762 0-1.285-.048-.5-.047-.81-.143-.31-.071-.452-.214-.12-.119-.12-.286v-7.118h-27.876q-.88 0-1.285-.476-.405-.5-.405-1.452v-20.116q0-.238.143-.404.143-.19.5-.31.357-.119.928-.167.595-.071 1.476-.071t1.429.071q.57.048.88.167.334.12.453.31.142.166.142.404v17.045h6.738v-17.045q0-.238.119-.404.119-.19.404-.31.31-.119.857-.167.572-.071 1.429-.071.88 0 1.452.071.571.048.88.167.334.12.477.31.143.166.143.404v17.045h6.737v-17.045q0-.238.119-.404.142-.19.476-.31.333-.119.88-.167.572-.071 1.429-.071.88 0 1.452.071.595.048.928.167.358.12.5.31.167.166.167.404v17.045h2.404q.667 0 .953.262.285.238.262.929v10.903zm24.854-7.833q0 .239-.143.405-.119.167-.452.286-.334.095-.905.143-.547.047-1.404.047-.858 0-1.453-.047-.571-.048-.952-.143-.357-.12-.524-.286-.142-.166-.142-.405v-9.474q0-1 .047-2.071.072-1.072.19-2.095-.57 1-1.237 1.976-.667.952-1.357 1.904l-7.166 9.737q-.214.262-.404.452-.19.167-.5.286-.286.095-.738.119-.453.047-1.167.047-.857 0-1.404-.047-.524-.048-.857-.143-.31-.12-.453-.286-.119-.19-.119-.428V284.49q0-.214.12-.38.142-.19.475-.31.358-.119.905-.167.571-.071 1.428-.071 1.69 0 2.381.238.69.238.69.69v9.428q0 .976-.071 2.023-.071 1.048-.19 2.024.57-.953 1.166-1.881.595-.952 1.262-1.833l7.237-9.76q.19-.262.404-.429.215-.19.524-.286.333-.119.786-.166.476-.048 1.214-.048.833 0 1.38.048.548.047.858.166.333.12.452.31t.119.428v21.306zm21.758-19.473q0 .786-.071 1.31-.048.523-.167.833-.119.31-.31.428-.166.12-.38.12h-5.356v16.711q0 .238-.143.429-.143.166-.476.285-.334.12-.929.167-.571.071-1.452.071-.857 0-1.428-.071-.572-.048-.929-.167-.333-.119-.476-.285-.119-.19-.119-.429v-16.712h-5.356q-.238 0-.429-.119-.166-.142-.285-.452-.12-.31-.19-.857-.049-.547-.049-1.333 0-.714.072-1.19.071-.5.19-.81.12-.31.286-.428.167-.143.405-.143h16.664q.214 0 .38.143.191.119.31.428.12.31.167.833.071.5.071 1.238zM784 305.82q0 .334-.238.524t-.762.262q-.5.095-1.5.095-1.07 0-1.57-.095-.477-.071-.691-.262-.19-.19-.19-.524v-1.69q-1.31 1.405-3 2.19-1.667.786-3.714.786-1.69 0-3.118-.452-1.405-.429-2.452-1.286-1.024-.88-1.595-2.166-.572-1.286-.572-3 0-1.857.714-3.213.738-1.381 2.167-2.262 1.452-.905 3.594-1.333 2.143-.429 4.976-.429h2.071v-1.285q0-1-.214-1.738-.19-.762-.667-1.262-.452-.5-1.238-.738-.762-.238-1.904-.238-1.5 0-2.69.334-1.167.333-2.071.738-.905.404-1.524.738-.595.333-.976.333-.262 0-.476-.167-.19-.166-.333-.476-.12-.31-.19-.762-.072-.452-.072-1 0-.738.119-1.166.119-.429.452-.762.333-.357 1.166-.762.834-.428 1.952-.785 1.12-.357 2.429-.572 1.333-.238 2.737-.238 2.5 0 4.262.5 1.785.476 2.928 1.5 1.142 1 1.666 2.595.524 1.595.524 3.785v14.283zm-5.88-9.093h-2.285q-1.453 0-2.476.214-1.024.214-1.667.643-.642.428-.952 1.047-.285.595-.285 1.38 0 1.334.833 2.096.857.762 2.356.762 1.262 0 2.31-.643 1.07-.643 2.166-1.88v-3.62z" fill="#d66a2b"/></g></svg>